<svg width="141" height="100" viewBox="0 0 141 100" fill="none" xmlns="http://www.w3.org/2000/svg">
<path d="M87.9796 24.0494L85.5692 19.3153C85.2626 18.7131 84.4595 18.5821 83.9774 19.0555L68.6173 34.1394C68.4258 34.3274 68.3179 34.5845 68.3179 34.8528V35.1804C68.3179 35.4488 68.4258 35.7059 68.6173 35.8939L68.9813 36.2514C69.2934 36.5579 69.7685 36.626 70.1541 36.4194L81.6743 30.2487C82.1683 29.9841 82.7833 30.1771 83.0376 30.6765L85.5505 35.6119C85.8478 36.1958 86.617 36.3408 87.1064 35.9052L123.82 3.23161C124.034 3.04186 124.156 2.77003 124.156 2.4846V2.18618C124.156 1.91782 124.048 1.66072 123.856 1.47269L123.259 0.886482C123.072 0.702857 122.821 0.599976 122.559 0.599976H122.108C121.895 0.599976 121.687 0.668242 121.515 0.794793L89.4638 24.4008C88.9666 24.767 88.2597 24.5996 87.9796 24.0494Z" fill="url(#paint0_linear_6077_629)"/>
<path d="M89.5504 44.2515L69.3825 51.5481C68.8171 51.7527 68.5588 52.4064 68.8316 52.9422L69.2278 53.7204C69.3985 54.0556 69.7428 54.2666 70.119 54.2666H81.5743C82.1266 54.2666 82.5743 54.7144 82.5743 55.2666V60.8471C82.5743 61.1155 82.6822 61.3726 82.8737 61.5606L83.3623 62.0405C83.6108 62.2845 83.9684 62.3817 84.3062 62.297L138.864 48.6178C139.297 48.5094 139.6 48.1206 139.6 47.6746C139.6 47.4136 139.495 47.1636 139.309 46.9808L138.767 46.4482C138.543 46.2289 138.23 46.1268 137.92 46.1724L92.0363 52.9312C91.4325 53.0201 90.8906 52.5522 90.8906 51.9419V45.1919C90.8906 44.4986 90.2023 44.0157 89.5504 44.2515Z" fill="url(#paint1_linear_6077_629)"/>
<path d="M90.6024 72.8737L69.5204 68.5152C68.8998 68.3869 68.3179 68.8608 68.3179 69.4945V70.0285C68.3179 70.3826 68.5052 70.7103 68.8103 70.8901L79.1955 77.0091C79.723 77.32 79.8499 78.0276 79.4632 78.5023L76.3938 82.2701C75.943 82.8234 76.2003 83.6572 76.8844 83.8603L125.967 98.4323C126.315 98.5358 126.693 98.4419 126.952 98.1871L126.993 98.1468C127.392 97.7549 127.392 97.1117 126.993 96.7198L126.665 96.398C126.577 96.3112 126.473 96.2416 126.359 96.1927L89.5747 80.3888C89.0153 80.1485 88.7987 79.4682 89.1161 78.9486L91.6643 74.7781C91.9069 74.3811 91.8436 73.8692 91.5116 73.5432L91.1006 73.1395C90.9635 73.0049 90.7905 72.9126 90.6024 72.8737Z" fill="url(#paint2_linear_6077_629)"/>
<path d="M24.0197 47.2666H1.59998C1.04769 47.2666 0.599976 47.7144 0.599976 48.2666V57.9333C0.599976 58.4856 1.04769 58.9333 1.59997 58.9333H10.2923C10.8446 58.9333 11.2923 59.381 11.2923 59.9333V74.8471C11.2923 75.1155 11.4001 75.3726 11.5916 75.5606L12.1886 76.1468C12.3756 76.3304 12.6272 76.4333 12.8892 76.4333H20.9846C21.5369 76.4333 21.9846 75.9856 21.9846 75.4333V60.5195C21.9846 60.2512 22.0925 59.994 22.2839 59.806L22.5481 59.5466C22.9056 59.1955 23.4679 59.1632 23.8632 59.4712L57.3546 85.5556C57.5303 85.6924 57.7465 85.7666 57.9691 85.7666H58.4673C59.0196 85.7666 59.4673 85.3189 59.4673 84.7666V22.6C59.4673 22.0477 59.0196 21.6 58.4673 21.6H57.9666C57.7455 21.6 57.5307 21.6732 57.3557 21.8083L24.6306 47.0584C24.4556 47.1934 24.2408 47.2666 24.0197 47.2666Z" fill="url(#paint3_linear_6077_629)"/>
<path d="M87.9796 24.0494L85.5692 19.3153C85.2626 18.7131 84.4595 18.5821 83.9774 19.0555L68.6173 34.1394C68.4258 34.3274 68.3179 34.5845 68.3179 34.8528V35.1804C68.3179 35.4488 68.4258 35.7059 68.6173 35.8939L68.9813 36.2514C69.2934 36.5579 69.7685 36.626 70.1541 36.4194L81.6743 30.2487C82.1683 29.9841 82.7833 30.1771 83.0376 30.6765L85.5505 35.6119C85.8478 36.1958 86.617 36.3408 87.1064 35.9052L123.82 3.23161C124.034 3.04186 124.156 2.77003 124.156 2.4846V2.18618C124.156 1.91782 124.048 1.66072 123.856 1.47269L123.259 0.886482C123.072 0.702857 122.821 0.599976 122.559 0.599976H122.108C121.895 0.599976 121.687 0.668242 121.515 0.794793L89.4638 24.4008C88.9666 24.767 88.2597 24.5996 87.9796 24.0494Z" stroke="black" stroke-width="1.2" stroke-linecap="round"/>
<path d="M89.5504 44.2515L69.3825 51.5481C68.8171 51.7527 68.5588 52.4064 68.8316 52.9422L69.2278 53.7204C69.3985 54.0556 69.7428 54.2666 70.119 54.2666H81.5743C82.1266 54.2666 82.5743 54.7144 82.5743 55.2666V60.8471C82.5743 61.1155 82.6822 61.3726 82.8737 61.5606L83.3623 62.0405C83.6108 62.2845 83.9684 62.3817 84.3062 62.297L138.864 48.6178C139.297 48.5094 139.6 48.1206 139.6 47.6746C139.6 47.4136 139.495 47.1636 139.309 46.9808L138.767 46.4482C138.543 46.2289 138.23 46.1268 137.92 46.1724L92.0363 52.9312C91.4325 53.0201 90.8906 52.5522 90.8906 51.9419V45.1919C90.8906 44.4986 90.2023 44.0157 89.5504 44.2515Z" stroke="black" stroke-width="1.2" stroke-linecap="round"/>
<path d="M90.6024 72.8737L69.5204 68.5152C68.8998 68.3869 68.3179 68.8608 68.3179 69.4945V70.0285C68.3179 70.3826 68.5052 70.7103 68.8103 70.8901L79.1955 77.0091C79.723 77.32 79.8499 78.0276 79.4632 78.5023L76.3938 82.2701C75.943 82.8234 76.2003 83.6572 76.8844 83.8603L125.967 98.4323C126.315 98.5358 126.693 98.4419 126.952 98.1871L126.993 98.1468C127.392 97.7549 127.392 97.1117 126.993 96.7198L126.665 96.398C126.577 96.3112 126.473 96.2416 126.359 96.1927L89.5747 80.3888C89.0153 80.1485 88.7987 79.4682 89.1161 78.9486L91.6643 74.7781C91.9069 74.3811 91.8436 73.8692 91.5116 73.5432L91.1006 73.1395C90.9635 73.0049 90.7905 72.9126 90.6024 72.8737Z" stroke="black" stroke-width="1.2" stroke-linecap="round"/>
<path d="M24.0197 47.2666H1.59998C1.04769 47.2666 0.599976 47.7144 0.599976 48.2666V57.9333C0.599976 58.4856 1.04769 58.9333 1.59997 58.9333H10.2923C10.8446 58.9333 11.2923 59.381 11.2923 59.9333V74.8471C11.2923 75.1155 11.4001 75.3726 11.5916 75.5606L12.1886 76.1468C12.3756 76.3304 12.6272 76.4333 12.8892 76.4333H20.9846C21.5369 76.4333 21.9846 75.9856 21.9846 75.4333V60.5195C21.9846 60.2512 22.0925 59.994 22.2839 59.806L22.5481 59.5466C22.9056 59.1955 23.4679 59.1632 23.8632 59.4712L57.3546 85.5556C57.5303 85.6924 57.7465 85.7666 57.9691 85.7666H58.4673C59.0196 85.7666 59.4673 85.3189 59.4673 84.7666V22.6C59.4673 22.0477 59.0196 21.6 58.4673 21.6H57.9666C57.7455 21.6 57.5307 21.6732 57.3557 21.8083L24.6306 47.0584C24.4556 47.1934 24.2408 47.2666 24.0197 47.2666Z" stroke="black" stroke-width="1.2" stroke-linecap="round"/>
<defs>
<linearGradient id="paint0_linear_6077_629" x1="139.6" y1="49.6" x2="0.599976" y2="49.6" gradientUnits="userSpaceOnUse">
<stop offset="0.528846" stop-color="#FFB956"/>
<stop offset="0.596154" stop-color="#00FFD4"/>
</linearGradient>
<linearGradient id="paint1_linear_6077_629" x1="139.6" y1="49.6" x2="0.599976" y2="49.6" gradientUnits="userSpaceOnUse">
<stop offset="0.528846" stop-color="#FFB956"/>
<stop offset="0.596154" stop-color="#00FFD4"/>
</linearGradient>
<linearGradient id="paint2_linear_6077_629" x1="139.6" y1="49.6" x2="0.599976" y2="49.6" gradientUnits="userSpaceOnUse">
<stop offset="0.528846" stop-color="#FFB956"/>
<stop offset="0.596154" stop-color="#00FFD4"/>
</linearGradient>
<linearGradient id="paint3_linear_6077_629" x1="139.6" y1="49.6" x2="0.599976" y2="49.6" gradientUnits="userSpaceOnUse">
<stop offset="0.528846" stop-color="#FFB956"/>
<stop offset="0.596154" stop-color="#00FFD4"/>
</linearGradient>
</defs>
</svg>
